<mxfile host="app.diagrams.net" agent="Mozilla/5.0 (Windows NT 10.0; Win64; x64) AppleWebKit/537.36 (KHTML, like Gecko) Chrome/139.0.0.0 Safari/537.36" version="28.1.2">
  <diagram name="Page-1" id="f-q6mq31AA9A9RpQfnGx">
    <mxGraphModel dx="2084" dy="1244" grid="1" gridSize="10" guides="1" tooltips="1" connect="1" arrows="1" fold="1" page="1" pageScale="1" pageWidth="850" pageHeight="1100" math="0" shadow="0">
      <root>
        <mxCell id="0" />
        <mxCell id="1" parent="0" />
        <mxCell id="XS7mPMaAVzyqKWorxpi8-17" value="" style="edgeStyle=none;curved=1;rounded=0;orthogonalLoop=1;jettySize=auto;html=1;fontSize=12;startSize=8;endSize=8;" edge="1" parent="1" source="XS7mPMaAVzyqKWorxpi8-1" target="XS7mPMaAVzyqKWorxpi8-4">
          <mxGeometry relative="1" as="geometry" />
        </mxCell>
        <mxCell id="XS7mPMaAVzyqKWorxpi8-1" value="start" style="ellipse;whiteSpace=wrap;html=1;" vertex="1" parent="1">
          <mxGeometry x="220" y="10" width="120" height="80" as="geometry" />
        </mxCell>
        <mxCell id="XS7mPMaAVzyqKWorxpi8-2" value="end" style="ellipse;whiteSpace=wrap;html=1;" vertex="1" parent="1">
          <mxGeometry x="210" y="870" width="120" height="80" as="geometry" />
        </mxCell>
        <mxCell id="XS7mPMaAVzyqKWorxpi8-3" value="Input &quot;please enter your name or enter &quot;zzzz&quot; to exit.&quot;&lt;div&gt;Return to customerName&lt;/div&gt;" style="rounded=0;whiteSpace=wrap;html=1;" vertex="1" parent="1">
          <mxGeometry x="450" y="330" width="170" height="70" as="geometry" />
        </mxCell>
        <mxCell id="XS7mPMaAVzyqKWorxpi8-19" value="" style="edgeStyle=none;curved=1;rounded=0;orthogonalLoop=1;jettySize=auto;html=1;fontSize=12;startSize=8;endSize=8;" edge="1" parent="1" source="XS7mPMaAVzyqKWorxpi8-4" target="XS7mPMaAVzyqKWorxpi8-6">
          <mxGeometry relative="1" as="geometry" />
        </mxCell>
        <mxCell id="XS7mPMaAVzyqKWorxpi8-4" value="Declare&lt;div&gt;customerName,&lt;/div&gt;&lt;div&gt;numBathrooms.&lt;/div&gt;&lt;div&gt;numOtherRooms,&lt;/div&gt;&lt;div&gt;serviceCharge&lt;/div&gt;&lt;div&gt;&lt;br&gt;&lt;/div&gt;&lt;div&gt;Declare constents&lt;/div&gt;&lt;div&gt;BASE_CHARGE= 40,&lt;/div&gt;&lt;div&gt;BATHROOM_RATE=15.&lt;/div&gt;&lt;div&gt;OTHER_ROOM_RATE=10&lt;/div&gt;" style="rounded=0;whiteSpace=wrap;html=1;" vertex="1" parent="1">
          <mxGeometry x="200" y="120" width="150" height="180" as="geometry" />
        </mxCell>
        <mxCell id="XS7mPMaAVzyqKWorxpi8-20" value="" style="edgeStyle=none;curved=1;rounded=0;orthogonalLoop=1;jettySize=auto;html=1;fontSize=12;startSize=8;endSize=8;" edge="1" parent="1" source="XS7mPMaAVzyqKWorxpi8-6">
          <mxGeometry relative="1" as="geometry">
            <mxPoint x="450" y="570" as="targetPoint" />
          </mxGeometry>
        </mxCell>
        <mxCell id="XS7mPMaAVzyqKWorxpi8-33" style="edgeStyle=none;curved=1;rounded=0;orthogonalLoop=1;jettySize=auto;html=1;fontSize=12;startSize=8;endSize=8;exitX=0;exitY=0.5;exitDx=0;exitDy=0;entryX=0;entryY=0.5;entryDx=0;entryDy=0;" edge="1" parent="1" source="XS7mPMaAVzyqKWorxpi8-6" target="XS7mPMaAVzyqKWorxpi8-2">
          <mxGeometry relative="1" as="geometry">
            <mxPoint x="170" y="570" as="targetPoint" />
            <mxPoint x="180" y="830" as="sourcePoint" />
          </mxGeometry>
        </mxCell>
        <mxCell id="XS7mPMaAVzyqKWorxpi8-6" value="customerName&lt;div&gt;=&quot;zzzz&quot;&lt;/div&gt;" style="rhombus;whiteSpace=wrap;html=1;" vertex="1" parent="1">
          <mxGeometry x="210" y="500" width="130" height="140" as="geometry" />
        </mxCell>
        <mxCell id="XS7mPMaAVzyqKWorxpi8-22" value="" style="edgeStyle=none;curved=1;rounded=0;orthogonalLoop=1;jettySize=auto;html=1;fontSize=12;startSize=8;endSize=8;" edge="1" parent="1" target="XS7mPMaAVzyqKWorxpi8-21">
          <mxGeometry relative="1" as="geometry">
            <mxPoint x="510" y="610" as="sourcePoint" />
          </mxGeometry>
        </mxCell>
        <mxCell id="XS7mPMaAVzyqKWorxpi8-39" style="edgeStyle=none;curved=1;rounded=0;orthogonalLoop=1;jettySize=auto;html=1;entryX=0.5;entryY=0;entryDx=0;entryDy=0;fontSize=12;startSize=8;endSize=8;" edge="1" parent="1" source="XS7mPMaAVzyqKWorxpi8-8" target="XS7mPMaAVzyqKWorxpi8-9">
          <mxGeometry relative="1" as="geometry" />
        </mxCell>
        <mxCell id="XS7mPMaAVzyqKWorxpi8-8" value="start DetailedLoop" style="ellipse;whiteSpace=wrap;html=1;" vertex="1" parent="1">
          <mxGeometry x="1370" y="340" width="120" height="80" as="geometry" />
        </mxCell>
        <mxCell id="XS7mPMaAVzyqKWorxpi8-40" style="edgeStyle=none;curved=1;rounded=0;orthogonalLoop=1;jettySize=auto;html=1;fontSize=12;startSize=8;endSize=8;" edge="1" parent="1" source="XS7mPMaAVzyqKWorxpi8-9" target="XS7mPMaAVzyqKWorxpi8-10">
          <mxGeometry relative="1" as="geometry" />
        </mxCell>
        <mxCell id="XS7mPMaAVzyqKWorxpi8-9" value="Input &quot;Number of bathrooms&quot;&lt;div&gt;&lt;br&gt;&lt;/div&gt;&lt;div&gt;bathrooms&lt;/div&gt;" style="rounded=0;whiteSpace=wrap;html=1;" vertex="1" parent="1">
          <mxGeometry x="1370" y="480" width="120" height="60" as="geometry" />
        </mxCell>
        <mxCell id="XS7mPMaAVzyqKWorxpi8-12" value="" style="edgeStyle=none;curved=1;rounded=0;orthogonalLoop=1;jettySize=auto;html=1;fontSize=12;startSize=8;endSize=8;" edge="1" parent="1" source="XS7mPMaAVzyqKWorxpi8-10" target="XS7mPMaAVzyqKWorxpi8-11">
          <mxGeometry relative="1" as="geometry" />
        </mxCell>
        <mxCell id="XS7mPMaAVzyqKWorxpi8-10" value="Input &quot;Enter number of rooms&quot;&lt;div&gt;&lt;br&gt;&lt;/div&gt;&lt;div&gt;rooms&lt;/div&gt;" style="rounded=0;whiteSpace=wrap;html=1;" vertex="1" parent="1">
          <mxGeometry x="1370" y="600" width="120" height="60" as="geometry" />
        </mxCell>
        <mxCell id="XS7mPMaAVzyqKWorxpi8-14" value="" style="edgeStyle=none;curved=1;rounded=0;orthogonalLoop=1;jettySize=auto;html=1;fontSize=12;startSize=8;endSize=8;" edge="1" parent="1" source="XS7mPMaAVzyqKWorxpi8-11">
          <mxGeometry relative="1" as="geometry">
            <mxPoint x="1430" y="960" as="targetPoint" />
          </mxGeometry>
        </mxCell>
        <mxCell id="XS7mPMaAVzyqKWorxpi8-11" value="service charge" style="rounded=0;whiteSpace=wrap;html=1;" vertex="1" parent="1">
          <mxGeometry x="1370" y="780" width="120" height="60" as="geometry" />
        </mxCell>
        <mxCell id="XS7mPMaAVzyqKWorxpi8-42" style="edgeStyle=none;curved=1;rounded=0;orthogonalLoop=1;jettySize=auto;html=1;fontSize=12;startSize=8;endSize=8;" edge="1" parent="1" target="XS7mPMaAVzyqKWorxpi8-15">
          <mxGeometry relative="1" as="geometry">
            <mxPoint x="1430" y="1020" as="sourcePoint" />
          </mxGeometry>
        </mxCell>
        <mxCell id="XS7mPMaAVzyqKWorxpi8-15" value="Return charge" style="ellipse;whiteSpace=wrap;html=1;" vertex="1" parent="1">
          <mxGeometry x="1370" y="960" width="120" height="80" as="geometry" />
        </mxCell>
        <mxCell id="XS7mPMaAVzyqKWorxpi8-24" value="" style="edgeStyle=none;curved=1;rounded=0;orthogonalLoop=1;jettySize=auto;html=1;fontSize=12;startSize=8;endSize=8;" edge="1" parent="1" source="XS7mPMaAVzyqKWorxpi8-21">
          <mxGeometry relative="1" as="geometry">
            <mxPoint x="510" y="705" as="targetPoint" />
          </mxGeometry>
        </mxCell>
        <mxCell id="XS7mPMaAVzyqKWorxpi8-46" value="" style="edgeStyle=none;curved=1;rounded=0;orthogonalLoop=1;jettySize=auto;html=1;fontSize=12;startSize=8;endSize=8;" edge="1" parent="1" source="XS7mPMaAVzyqKWorxpi8-21" target="XS7mPMaAVzyqKWorxpi8-45">
          <mxGeometry relative="1" as="geometry" />
        </mxCell>
        <mxCell id="XS7mPMaAVzyqKWorxpi8-21" value="Detailed Loop&lt;div&gt;&lt;br&gt;&lt;/div&gt;&lt;div&gt;Get bathroom, rooms&lt;/div&gt;&lt;div&gt;&lt;br&gt;&lt;/div&gt;&lt;div&gt;Compute charge&lt;/div&gt;&lt;div&gt;&lt;br&gt;&lt;/div&gt;&lt;div&gt;DIsplay change&lt;/div&gt;" style="whiteSpace=wrap;html=1;" vertex="1" parent="1">
          <mxGeometry x="450" y="630" width="120" height="110" as="geometry" />
        </mxCell>
        <mxCell id="XS7mPMaAVzyqKWorxpi8-32" value="" style="edgeStyle=none;curved=1;rounded=0;orthogonalLoop=1;jettySize=auto;html=1;fontSize=12;startSize=8;endSize=8;" edge="1" parent="1" source="XS7mPMaAVzyqKWorxpi8-28">
          <mxGeometry relative="1" as="geometry">
            <mxPoint x="450" y="370" as="targetPoint" />
          </mxGeometry>
        </mxCell>
        <mxCell id="XS7mPMaAVzyqKWorxpi8-28" value="call Housekeeping" style="rounded=0;whiteSpace=wrap;html=1;" vertex="1" parent="1">
          <mxGeometry x="215" y="340" width="120" height="60" as="geometry" />
        </mxCell>
        <mxCell id="XS7mPMaAVzyqKWorxpi8-43" value="Detailed loop" style="ellipse;whiteSpace=wrap;html=1;" vertex="1" parent="1">
          <mxGeometry x="450" y="530" width="120" height="80" as="geometry" />
        </mxCell>
        <mxCell id="XS7mPMaAVzyqKWorxpi8-44" style="edgeStyle=none;curved=1;rounded=0;orthogonalLoop=1;jettySize=auto;html=1;exitX=1;exitY=0.5;exitDx=0;exitDy=0;fontSize=12;startSize=8;endSize=8;" edge="1" parent="1">
          <mxGeometry relative="1" as="geometry">
            <mxPoint x="570" y="800" as="sourcePoint" />
            <mxPoint x="570" y="800" as="targetPoint" />
          </mxGeometry>
        </mxCell>
        <mxCell id="XS7mPMaAVzyqKWorxpi8-47" style="edgeStyle=none;curved=1;rounded=0;orthogonalLoop=1;jettySize=auto;html=1;fontSize=12;startSize=8;endSize=8;exitX=1;exitY=0.5;exitDx=0;exitDy=0;" edge="1" parent="1" source="XS7mPMaAVzyqKWorxpi8-45">
          <mxGeometry relative="1" as="geometry">
            <mxPoint x="340" y="400" as="targetPoint" />
            <Array as="points">
              <mxPoint x="680" y="840" />
              <mxPoint x="680" y="830" />
              <mxPoint x="680" y="800" />
              <mxPoint x="680" y="750" />
              <mxPoint x="680" y="640" />
              <mxPoint x="680" y="470" />
              <mxPoint x="680" y="410" />
              <mxPoint x="680" y="400" />
              <mxPoint x="640" y="400" />
              <mxPoint x="600" y="400" />
              <mxPoint x="510" y="400" />
            </Array>
          </mxGeometry>
        </mxCell>
        <mxCell id="XS7mPMaAVzyqKWorxpi8-45" value="call Housekeeping" style="whiteSpace=wrap;html=1;" vertex="1" parent="1">
          <mxGeometry x="450" y="810" width="120" height="60" as="geometry" />
        </mxCell>
      </root>
    </mxGraphModel>
  </diagram>
</mxfile>
